<?xml version="1.0" encoding="utf-8"?>
<!-- Generator: Adobe Illustrator 16.0.0, SVG Export Plug-In . SVG Version: 6.00 Build 0)  -->
<!DOCTYPE svg PUBLIC "-//W3C//DTD SVG 1.1//EN" "http://www.w3.org/Graphics/SVG/1.1/DTD/svg11.dtd">
<svg version="1.1" id="Layer_1" xmlns="http://www.w3.org/2000/svg" xmlns:xlink="http://www.w3.org/1999/xlink" x="0px" y="0px"
	 width="773px" height="447px" viewBox="33.445 74.14 773 447" enable-background="new 33.445 74.14 773 447" xml:space="preserve">
<g>
	<g>
		<path d="M158.396,179.675h-0.127l-10.91,30.497h-3.254l-10.527-30.497h-0.127l-4.275,29.858h-9.44l8.102-49.384h6.635
			l11.867,31.711l11.356-31.711h6.764l7.208,49.384h-9.441L158.396,179.675z"/>
		<path d="M268.744,210.809c-14.674,0-23.798-11.228-23.798-25.392c0-14.292,9.443-25.267,23.798-25.267
			c14.355,0,23.798,10.976,23.798,25.267C292.542,199.581,283.419,210.809,268.744,210.809z M268.744,169.403
			c-8.868,0-14.099,7.849-14.099,15.631c0,7.399,3.7,16.524,14.099,16.524c10.4,0,14.101-9.125,14.101-16.524
			C282.844,177.25,277.612,169.403,268.744,169.403z"/>
		<path d="M368.566,160.15h6.763l25.33,33.625h0.127v-32.347h9.378v49.063H403.4l-25.328-33.624h-0.127v32.666h-9.379V160.15
			L368.566,160.15z"/>
		<path d="M509.926,210.809c-14.675,0-23.8-11.228-23.8-25.392c0-14.292,9.443-25.267,23.8-25.267
			c14.354,0,23.796,10.976,23.796,25.267C533.721,199.581,524.599,210.809,509.926,210.809z M509.926,169.403
			c-8.869,0-14.102,7.849-14.102,15.631c0,7.399,3.701,16.524,14.102,16.524c10.399,0,14.1-9.125,14.1-16.524
			C524.024,177.25,518.794,169.403,509.926,169.403z"/>
		<path d="M154.632,269.868c-2.615-3.189-6.571-5.104-10.591-5.104c-8.997,0-14.163,8.294-14.163,16.588
			c0,8.104,5.358,16.206,14.101,16.206c4.02,0,8.039-2.104,10.654-5.104v11.166c-3.51,1.658-7.019,2.869-10.909,2.869
			c-13.525,0-23.543-11.675-23.543-24.944c0-13.654,9.635-25.712,23.734-25.712c3.765,0,7.464,1.021,10.719,2.808v11.229H154.632z"
			/>
		<path d="M258.986,276.057v-18.948h9.379v48.106h-9.379v-21.5h-17.354v21.5h-9.379v-48.106h9.379v18.948H258.986z"/>
		<path d="M379.226,305.215H367.87l-11.675-19.396h-0.128v19.396h-9.379v-48.106h12.697c9.506,0,16.077,4.211,16.077,14.481
			c0,6.125-3.382,12.25-9.825,13.336L379.226,305.215z M356.067,279.248h1.212c5.168,0,8.805-1.533,8.805-7.401
			c0-5.934-3.763-7.082-8.741-7.082h-1.275V279.248z"/>
		<path d="M475.227,306.489c-14.674,0-23.799-11.228-23.799-25.391c0-14.292,9.442-25.266,23.799-25.266
			c14.355,0,23.798,10.974,23.798,25.266C499.024,295.262,489.9,306.489,475.227,306.489z M475.227,265.084
			c-8.868,0-14.1,7.847-14.1,15.631c0,7.4,3.698,16.523,14.1,16.523s14.1-9.123,14.1-16.523
			C489.326,272.931,484.094,265.084,475.227,265.084z"/>
		<path d="M610.969,275.356h-0.127l-10.91,30.497h-3.253l-10.528-30.497h-0.128l-4.272,29.859h-9.442l8.103-49.383h6.635
			l11.867,31.71l11.355-31.71h6.764l7.208,49.383h-9.44L610.969,275.356z"/>
		<path d="M709.196,265.276v10.589h14.93v8.167h-14.93v13.017H724.7v8.167h-24.884v-48.106H724.7v8.167H709.196L709.196,265.276z"/>
	</g>
	<path d="M208.552,415.062c7.144-2.815,13.921-6.554,20.833-9.948c3.714-1.825,7.463-3.619,11.015-5.736
		c4.184-2.491,8.22-5.251,12.212-8.042c2.533-1.782,4.847-3.855,7.29-5.763c0.936-0.716,1.947-1.347,2.917-2.019
		c0.261,0.262,0.526,0.53,0.786,0.785c-0.999,1.919-1.925,3.888-3.023,5.757c-3.065,5.22-6.751,10.153-9.174,15.653
		c-2.833,6.439-1.7,9.051,5.064,7.947c5.866-0.96,10.625,0.586,15.717,2.448c3.22,1.19,6.668,0.666,10.001,0.896
		c7.253,0.499,22.391-4.809,23.5-5.213c4.573-1.683,9.147-3.377,13.717-5.085c0.723-0.266,1.439-0.56,2.729-1.07
		c-1.246,2.94-2.349,5.185-3.152,7.524c-1.414,4.139,0.34,6.686,4.818,6.335c3.479-0.261,6.964-1.201,10.307-2.284
		c5.736-1.852,11.368-4.036,16.164-5.764c1.393,3.981,4.087,5.229,6.275,5.906c9.743,2.996,19.437,5.948,30.085,4.628
		c13.997-1.75,27.976-3.22,40.828-9.456c7.049-3.42,13.81-7.443,20.69-11.199c6.056-3.296,19.485-10.578,20.108-10.978
		c3.221-2.042,6.396-4.154,9.667-6.104c1.886-1.128,3.926-1.993,5.894-2.966c-3.283,3.053-5.898,6.474-8.83,9.625
		c-3.421,3.688-7.44,6.864-10.593,10.751c-3.067,3.771-1.633,6.826,3.265,7.382c3.038,0.35,6.198-0.062,9.275-0.393
		c4.561-0.479,29.766-3.562,35.231-3.956c6.323-0.459,58.842-2.105,68.762-2.554c9.025-0.398,18.044-0.896,27.069-1.189
		c2.398-0.081,4.514,0.679,6.043,3.033c1.514,2.324,3.59,4.306,5.538,6.316c2.315,2.396,4.762,4.673,7.38,7.227
		c-1.352,1.077-2.148,2.086-3.173,2.484c-4.434,1.714-8.96,3.177-13.39,4.884c-3.463,1.335-6.869,2.835-10.24,4.386
		c-1.799,0.829-2.604,2.393-2.364,4.398c0.215,1.868,1.704,2.359,3.186,2.577c1.738,0.243,3.529,0.188,5.295,0.331
		c4.006,0.323,7.448-1.65,11.157-2.554c6.049-1.477,10.882-4.598,14.825-9.227c2.148-2.528,4.713-3.844,8.012-4.229
		c3.979-0.454,7.91-1.32,11.871-1.981c7.305-1.214,14.571-2.658,21.915-3.55c11.206-1.357,22.451-2.417,33.689-3.426
		c3.979-0.361,8.027-0.417,12.009-0.169c3.183,0.194,5.443-1.214,5.582-4.386c0.053-1.169-0.014-2.429-0.377-3.531
		c-0.335-0.966-1.038-2.354-1.802-2.511c-0.822-0.173-1.939,0.786-2.855,1.378c-1.198,0.753-2.236,2.173-3.481,2.348
		c-9.702,1.396-19.423,2.642-29.163,3.775c-9.838,1.15-19.735,1.912-29.56,3.239c-6.617,0.896-13.129,2.491-19.698,3.748
		c-2.703,0.52-5.332,1.011-6.574-2.548c-0.289-0.834-1.612-1.238-2.253-2.018c-1.722-2.101-4.782-3.047-5.614-6.534
		c1.505-0.518,2.815-1.239,4.188-1.378c3.692-0.361,7.401-0.441,11.108-0.688c2.322-0.163,4.419-2.463,4.339-4.729
		c-0.088-2.484-2.09-2.592-3.828-2.853c-1.02-0.156-2.078-0.106-3.119-0.05c-2.475,0.13-5.005,0.717-7.421,0.417
		c-4.921-0.615-9.781-0.256-14.684-0.02c-6.819,0.324-13.663,0.188-20.492,0.387c-9.706,0.269-19.409,0.653-29.109,0.99
		c-2.972,0.105-5.944,0.118-8.909,0.293c-6.353,0.366-32.753,0.529-39.486,1.233c-10.901,1.146-21.908,1.103-32.738,3.052
		c-3.87,0.698-7.885,0.604-11.837,0.866c-0.102-0.248-0.193-0.512-0.3-0.761c2.871-2.679,5.783-5.326,8.614-8.042
		c2-1.926,3.743-4.167,5.899-5.875c5.095-4.042,10.439-7.779,15.542-11.81c1.625-1.278,3.207-2.051,5.254-1.969
		c7.098,0.291,14.199,0.521,21.299,0.841c6.974,0.316,13.956,0.622,20.92,1.121c5.164,0.36,10.303,1.021,15.457,1.539
		c1.032,0.111,2.078,0.348,3.088,0.249c2.005-0.199,3.513-3.158,2.982-5.632c-0.373-1.757-1.972-2.417-4.161-2
		c-1.862,0.367-3.782,0.654-5.675,0.585c-6.359-0.218-12.726-0.604-19.082-0.965c-8.45-0.461-16.903-0.946-25.353-1.487
		c-1.25-0.082-2.482-0.48-3.649-0.717c1.138-2.631,2.119-4.886,3.32-7.65c-1.42-0.61-3-1.812-3.568-1.45
		c-2.199,1.42-4.796,1.769-6.908,3.692c-4.796,4.393-9.406,7.021-15.825,3.325c-1.275-0.739-2.631-1.356-4.177-2.147
		c-1.028,0.771-2.259,1.421-3.041,2.412c-0.409,0.527-0.36,1.955,0.079,2.483c1.336,1.597,2.952,2.946,4.588,4.522
		c-3.37,2.056-6.883,4.187-10.384,6.348c-2.132,1.309-4.174,2.76-6.361,3.975c-5.556,3.077-28.473,15.021-31.479,17.118
		c-7.644,5.332-30.506,13.691-33.424,13.983c-6.92,0.667-26.873,6.604-37.132-0.012c-2.479-0.754-7.27-2.23-7.438-2.761
		c-0.168-0.535,2.98-5.419,4.267-7.756c0.43-3.344-4.544-1.669-7.182-0.959c-4.821,1.296-9.432,3.011-14.038,4.84
		c-3.844,1.539-7.81,2.755-11.702,4.155c-1.336,0.479-2.567,0.742-3.599-0.754c1.773-3.85,4.775-6.677,7.767-9.524
		c1.356-1.296,1.678-3.632,0.521-4.796c-1.261-1.265-2.725-2.359-4.728-1.104c-0.979,0.611-2.112,1.447-3.165,1.421
		c-4.46-0.13-7.787,2.386-11.318,4.454c-9.584,5.595-19.993,8.664-30.935,9.893c-6.522,0.729-13.061,0.747-18.26-4.555
		c-1.47-1.488-3.542-1.195-5.498-0.61c-1.65,0.498-3.357,0.8-5.706,1.333c0.586-1.626,0.825-2.585,1.266-3.438
		c1.028-1.976,2.121-3.906,3.249-5.818c2.702-4.57,5.064-9.413,8.263-13.604c4.552-5.98,9.737-11.463,14.613-17.192
		c2.158-2.529,5.126-4.624,4.899-8.883c-0.878-3.084-2.078-3.084-3.735-2.618c-1.66,1.809-3.12,3.391-4.572,4.99
		c-0.685,0.766-1.246,1.688-2.012,2.354c-4.489,3.831-9.023,7.606-13.547,11.399c-6.812,5.706-13.346,11.823-21.246,16.048
		c-8.461,4.527-16.662,9.519-25.082,14.133c-6.361,3.59-26.127,8.729-43.526,13.281c-12.169,3.178-23.098,3.47-27.826,4.166
		c-1.138,0.045-2.31-0.883-3.604-1.419c0.545-0.96,0.794-1.496,1.133-1.976c0.683-0.958,1.417-1.894,2.117-2.847
		c2.319-3.177,1.947-5.849-1.428-7.812c-2.276-1.319-4.817-2.198-7.22-3.319c-1.387-0.641-3.177-0.741-3.937-2.715
		c3.55-1.853,6.25-3.788,10.315-3.731c1.179,0.02,2.995-0.181,4.127-0.486c1.832-0.518,3.412-3.059,2.766-4.504
		c-0.805-1.806-2.281-2.049-4.097-1.438c-1.118,0.367-2.344,0.418-3.513,0.618c-7.089,1.257-13.728,3.624-19.64,7.854
		c-3.447,2.474-3.239,5.156,0.521,7.406c3.396,2.03,7.194,2.517,10.977,3.151c2.137,0.367,4.445,0.479,5.683,2.76
		c-1.786,3.924-5.19,5.824-8.751,7.339c-3.818,1.612-7.8,2.827-11.714,4.234c-1.946,0.699-2.475,2.431-1.83,3.956
		c0.473,1.109,1.98,2.312,3.181,2.492c1.668,0.249,3.549-0.198,5.223-0.718c7.396-2.271,14.745-3.999,22.648-2.646
		C151.184,427.944,201.521,418.157,208.552,415.062z"/>
	<path d="M807.371,520.679H34.518V74.602h772.853V520.679L807.371,520.679z M40.896,514.3h760.097V80.98H40.896V514.3z"/>
</g>
</svg>
