<?xml version="1.0" encoding="utf-8"?>
<!-- Generator: Adobe Illustrator 16.0.0, SVG Export Plug-In . SVG Version: 6.00 Build 0)  -->
<!DOCTYPE svg PUBLIC "-//W3C//DTD SVG 1.1//EN" "http://www.w3.org/Graphics/SVG/1.1/DTD/svg11.dtd">
<svg version="1.1" id="Layer_1" xmlns="http://www.w3.org/2000/svg" xmlns:xlink="http://www.w3.org/1999/xlink" x="0px" y="0px"
	 width="1300px" height="250px" viewBox="0 0 1300 250" enable-background="new 0 0 1300 250" xml:space="preserve">
<g>
	<g>
		<path d="M141.584,84.925h-0.127l-10.91,30.497h-3.254l-10.527-30.497h-0.127l-4.275,29.858h-9.441l8.102-49.383h6.634
			l11.868,31.711L140.882,65.4h6.764l7.208,49.383h-9.442L141.584,84.925z"/>
		<path d="M251.932,116.059c-14.674,0-23.798-11.228-23.798-25.392c0-14.292,9.443-25.266,23.798-25.266
			c14.355,0,23.798,10.975,23.798,25.266C275.73,104.831,266.607,116.059,251.932,116.059z M251.932,74.653
			c-8.868,0-14.099,7.848-14.099,15.63c0,7.4,3.7,16.525,14.099,16.525c10.4,0,14.1-9.125,14.1-16.525
			C266.032,82.5,260.8,74.653,251.932,74.653z"/>
		<path d="M351.755,65.4h6.763l25.33,33.625h0.127V66.678h9.378v49.063h-6.764l-25.328-33.624h-0.127v32.666h-9.379V65.4z"/>
		<path d="M493.113,116.059c-14.675,0-23.799-11.228-23.799-25.392c0-14.292,9.443-25.266,23.799-25.266
			c14.354,0,23.796,10.975,23.796,25.266C516.909,104.831,507.787,116.059,493.113,116.059z M493.113,74.653
			c-8.869,0-14.101,7.848-14.101,15.63c0,7.4,3.701,16.525,14.101,16.525c10.4,0,14.1-9.125,14.1-16.525
			C507.213,82.5,501.981,74.653,493.113,74.653z"/>
		<path d="M627.01,79.118c-2.616-3.189-6.571-5.104-10.591-5.104c-8.997,0-14.164,8.294-14.164,16.588
			c0,8.104,5.358,16.206,14.1,16.206c4.02,0,8.039-2.105,10.655-5.105v11.166c-3.51,1.659-7.019,2.87-10.91,2.87
			c-13.525,0-23.544-11.675-23.544-24.945c0-13.654,9.635-25.712,23.735-25.712c3.765,0,7.464,1.021,10.719,2.808V79.118z"/>
		<path d="M731.364,85.307V66.359h9.379v48.106h-9.379v-21.5h-17.354v21.5h-9.379V66.359h9.379v18.948H731.364z"/>
		<path d="M851.604,114.465h-11.355L828.573,95.07h-0.129v19.395h-9.379V66.359h12.697c9.506,0,16.078,4.211,16.078,14.481
			c0,6.125-3.383,12.25-9.826,13.336L851.604,114.465z M828.444,88.498h1.213c5.168,0,8.805-1.533,8.805-7.401
			c0-5.934-3.764-7.082-8.741-7.082h-1.276V88.498z"/>
		<path d="M947.604,115.739c-14.674,0-23.799-11.228-23.799-25.391c0-14.292,9.443-25.266,23.799-25.266
			c14.356,0,23.798,10.974,23.798,25.266C971.402,104.512,962.278,115.739,947.604,115.739z M947.604,74.334
			c-8.868,0-14.1,7.847-14.1,15.631c0,7.4,3.699,16.524,14.1,16.524s14.1-9.124,14.1-16.524
			C961.704,82.181,956.471,74.334,947.604,74.334z"/>
		<path d="M1083.347,84.606h-0.127l-10.91,30.497h-3.253l-10.528-30.497h-0.128l-4.273,29.859h-9.442l8.103-49.383h6.634
			l11.868,31.71l11.355-31.71h6.764l7.208,49.383h-9.441L1083.347,84.606z"/>
		<path d="M1181.574,74.526v10.589h14.93v8.167h-14.93v13.016h15.504v8.167h-24.884V66.359h24.884v8.167H1181.574z"/>
	</g>
	<path fill-rule="evenodd" clip-rule="evenodd" d="M191.602,186.312c7.143-2.815,13.921-6.554,20.832-9.948
		c3.714-1.825,7.463-3.619,11.015-5.737c4.185-2.491,8.22-5.251,12.212-8.042c2.533-1.782,4.848-3.855,7.291-5.762
		c0.936-0.716,1.946-1.347,2.917-2.019c0.261,0.262,0.526,0.53,0.786,0.785c-0.999,1.919-1.926,3.888-3.023,5.757
		c-3.066,5.22-6.751,10.153-9.174,15.653c-2.834,6.44-1.701,9.051,5.064,7.948c5.866-0.96,10.624,0.586,15.717,2.448
		c3.22,1.19,6.668,0.666,10,0.896c7.254,0.499,22.392-4.809,23.5-5.213c4.572-1.683,9.148-3.377,13.717-5.085
		c0.723-0.266,1.439-0.56,2.729-1.071c-1.246,2.941-2.348,5.185-3.152,7.525c-1.414,4.138,0.34,6.685,4.818,6.335
		c3.479-0.261,6.965-1.201,10.307-2.284c5.736-1.852,11.369-4.037,16.164-5.764c1.393,3.981,4.088,5.228,6.277,5.906
		c9.742,2.996,19.436,5.948,30.084,4.628c13.997-1.75,27.976-3.22,40.828-9.456c7.049-3.42,13.81-7.443,20.692-11.199
		c6.055-3.296,19.485-10.578,20.108-10.978c3.221-2.042,6.397-4.154,9.667-6.104c1.886-1.128,3.926-1.993,5.894-2.966
		c-3.283,3.053-5.899,6.474-8.83,9.625c-3.421,3.688-7.441,6.864-10.593,10.751c-3.068,3.77-1.633,6.826,3.264,7.382
		c3.039,0.349,6.199-0.062,9.276-0.393c4.56-0.479,29.765-3.562,35.231-3.956c6.324-0.459,58.841-2.105,68.761-2.554
		c9.025-0.398,18.045-0.896,27.07-1.189c2.398-0.081,4.514,0.679,6.043,3.033c1.514,2.324,3.59,4.306,5.537,6.317
		c2.316,2.396,4.762,4.672,7.381,7.226c-1.352,1.077-2.148,2.086-3.174,2.485c-4.432,1.713-8.959,3.176-13.389,4.883
		c-3.463,1.335-6.869,2.835-10.24,4.386c-1.799,0.829-2.605,2.393-2.365,4.399c0.215,1.868,1.705,2.359,3.186,2.577
		c1.738,0.243,3.529,0.188,5.295,0.331c4.006,0.323,7.449-1.651,11.158-2.554c6.049-1.477,10.881-4.598,14.824-9.227
		c2.15-2.528,4.713-3.843,8.012-4.229c3.98-0.454,7.91-1.32,11.871-1.981c7.305-1.214,14.572-2.659,21.916-3.55
		c11.205-1.358,22.451-2.417,33.689-3.426c3.979-0.361,8.027-0.417,12.008-0.169c3.184,0.194,5.445-1.214,5.582-4.386
		c0.053-1.169-0.012-2.429-0.377-3.531c-0.334-0.966-1.037-2.354-1.801-2.511c-0.822-0.173-1.939,0.786-2.855,1.378
		c-1.199,0.753-2.236,2.173-3.482,2.348c-9.701,1.396-19.422,2.641-29.162,3.775c-9.838,1.151-19.736,1.912-29.561,3.239
		c-6.617,0.896-13.129,2.492-19.697,3.749c-2.703,0.519-5.332,1.01-6.574-2.548c-0.289-0.834-1.613-1.239-2.254-2.018
		c-1.721-2.1-4.781-3.047-5.615-6.534c1.506-0.518,2.816-1.239,4.189-1.378c3.691-0.361,7.4-0.441,11.107-0.689
		c2.324-0.163,4.42-2.462,4.34-4.729c-0.088-2.484-2.09-2.592-3.828-2.853c-1.02-0.156-2.078-0.106-3.119-0.049
		c-2.475,0.13-5.006,0.716-7.422,0.417c-4.92-0.616-9.781-0.256-14.682-0.02c-6.82,0.324-13.664,0.188-20.494,0.387
		c-9.705,0.268-19.408,0.653-29.109,0.99c-2.971,0.106-5.943,0.118-8.908,0.293c-6.354,0.366-32.753,0.529-39.487,1.233
		c-10.901,1.146-21.908,1.103-32.738,3.052c-3.87,0.698-7.885,0.604-11.837,0.866c-0.101-0.248-0.193-0.511-0.299-0.76
		c2.871-2.679,5.783-5.326,8.614-8.042c2-1.926,3.743-4.167,5.899-5.875c5.095-4.042,10.44-7.78,15.542-11.81
		c1.625-1.278,3.207-2.051,5.254-1.969c7.098,0.291,14.199,0.522,21.299,0.841c6.974,0.317,13.956,0.622,20.919,1.121
		c5.164,0.361,10.303,1.022,15.457,1.539c1.033,0.112,2.078,0.348,3.088,0.249c2.006-0.199,3.514-3.158,2.982-5.631
		c-0.373-1.757-1.971-2.417-4.16-2c-1.863,0.367-3.783,0.654-5.676,0.585c-6.359-0.218-12.725-0.604-19.082-0.965
		c-8.449-0.461-16.902-0.947-25.351-1.488c-1.25-0.082-2.483-0.48-3.65-0.716c1.138-2.631,2.119-4.886,3.321-7.651
		c-1.42-0.61-3-1.812-3.569-1.45c-2.199,1.42-4.796,1.769-6.908,3.692c-4.796,4.393-9.406,7.021-15.825,3.326
		c-1.276-0.74-2.631-1.357-4.177-2.148c-1.028,0.772-2.259,1.421-3.041,2.412c-0.409,0.528-0.36,1.955,0.079,2.484
		c1.336,1.596,2.952,2.946,4.588,4.522c-3.37,2.056-6.883,4.187-10.384,6.348c-2.132,1.308-4.174,2.76-6.361,3.974
		c-5.556,3.078-28.473,15.021-31.479,17.119c-7.643,5.332-30.505,13.691-33.424,13.983c-6.92,0.667-26.873,6.604-37.132-0.012
		c-2.479-0.754-7.27-2.23-7.438-2.76c-0.168-0.536,2.981-5.419,4.268-7.756c0.43-3.344-4.544-1.669-7.182-0.959
		c-4.822,1.296-9.432,3.01-14.038,4.84c-3.843,1.539-7.809,2.754-11.702,4.155c-1.336,0.479-2.566,0.742-3.598-0.754
		c1.773-3.85,4.775-6.677,7.766-9.525c1.357-1.295,1.678-3.631,0.522-4.795c-1.261-1.265-2.725-2.36-4.728-1.104
		c-0.978,0.611-2.111,1.447-3.164,1.421c-4.461-0.13-7.787,2.386-11.318,4.454c-9.584,5.595-19.993,8.664-30.936,9.893
		c-6.521,0.728-13.059,0.747-18.26-4.555c-1.469-1.488-3.541-1.195-5.498-0.61c-1.65,0.498-3.357,0.799-5.706,1.333
		c0.586-1.626,0.825-2.585,1.267-3.438c1.027-1.975,2.121-3.906,3.248-5.818c2.702-4.571,5.064-9.413,8.263-13.604
		c4.552-5.98,9.737-11.463,14.613-17.192c2.158-2.529,5.126-4.624,4.899-8.883c-0.879-3.084-2.078-3.084-3.735-2.618
		c-1.659,1.808-3.12,3.39-4.571,4.99c-0.686,0.766-1.246,1.688-2.013,2.354c-4.489,3.831-9.024,7.606-13.547,11.399
		c-6.812,5.706-13.347,11.823-21.246,16.048c-8.461,4.527-16.661,9.518-25.081,14.133c-6.361,3.59-26.127,8.728-43.527,13.281
		c-12.168,3.178-23.098,3.47-27.826,4.166c-1.138,0.045-2.309-0.883-3.604-1.419c0.546-0.96,0.794-1.496,1.134-1.976
		c0.682-0.958,1.417-1.893,2.116-2.846c2.319-3.177,1.946-5.849-1.428-7.812c-2.276-1.319-4.817-2.198-7.22-3.319
		c-1.387-0.641-3.176-0.741-3.936-2.715c3.551-1.852,6.25-3.788,10.315-3.731c1.179,0.019,2.995-0.181,4.127-0.487
		c1.831-0.517,3.412-3.058,2.766-4.504c-0.805-1.805-2.281-2.048-4.097-1.438c-1.118,0.367-2.344,0.418-3.512,0.618
		c-7.09,1.257-13.728,3.624-19.64,7.854c-3.447,2.473-3.238,5.156,0.521,7.406c3.397,2.03,7.195,2.516,10.977,3.151
		c2.137,0.367,4.445,0.479,5.684,2.76c-1.787,3.924-5.191,5.824-8.751,7.339c-3.818,1.612-7.8,2.827-11.714,4.234
		c-1.946,0.699-2.475,2.431-1.829,3.956c0.472,1.11,1.98,2.312,3.18,2.492c1.669,0.249,3.549-0.198,5.223-0.717
		c7.395-2.272,14.745-3.999,22.647-2.647C134.233,199.194,184.571,189.408,191.602,186.312z"/>
</g>
</svg>
